<svg xmlns="http://www.w3.org/2000/svg" version="1.1" xmlns:xlink="http://www.w3.org/1999/xlink" width="1000" height="1000"><metadata><rdf:RDF xmlns:rdf="http://www.w3.org/1999/02/22-rdf-syntax-ns#" xmlns:dc="http://purl.org/dc/elements/1.1/"><rdf:Description><dc:creator>RealFaviconGenerator</dc:creator><dc:source>https://realfavicongenerator.net</dc:source></rdf:Description></rdf:RDF></metadata><g clip-path="url(#SvgjsClipPath5647)"><rect width="1000" height="1000" fill="#8ececf"></rect><g transform="matrix(2.272727272727273,0,0,2.272727272727273,51.13636363636357,49.99999999999994)"><svg xmlns="http://www.w3.org/2000/svg" version="1" preserveAspectRatio="xMidYMid meet" viewBox="0 0 395.000000 396.000000" width="395" height="396"><g fill="#000000" stroke="none" transform="translate(0.000000,396.000000) scale(0.100000,-0.100000)">
<path d="M3096 3779 c-50 -26 -132 -87 -196 -144 l-51 -45 -1005 0 c-953 0 -1005 -1 -1000 -17 3 -10 8 -30 12 -45 l6 -28 955 -2 955 -3 -48 -65 c-68 -93 -239 -258 -325 -315 -97 -64 -198 -110 -313 -142 l-94 -26 -149 -181 c-81 -99 -176 -213 -210 -253 l-63 -72 0 -215 0 -215 58 26 c102 45 198 65 312 65 133 0 216 -20 348 -83 197 -95 334 -261 399 -484 23 -81 23 -265 -1 -354 -103 -383 -484 -623 -864 -545 -122 25 -226 79 -317 165 -88 83 -149 169 -236 331 -84 155 -123 212 -204 294 -110 112 -233 180 -401 223 -96 25 -255 43 -308 34 l-38 -6 6 -56 c44 -377 213 -737 464 -989 223 -224 512 -371 817 -418 122 -19 384 -13 490 11 186 41 365 119 523 227 99 68 273 241 340 340 157 230 231 479 219 734 -11 243 -93 442 -265 640 -58 67 -62 75 -62 120 1 73 30 128 82 155 39 20 50 21 143 13 195 -16 253 -12 320 20 33 17 88 57 123 91 50 49 62 67 62 92 0 34 1 33 -162 166 l-96 77 -4 58 c-4 61 -45 162 -79 198 l-20 22 24 48 c56 111 99 278 101 388 l1 71 -31 -1 c-17 -1 -57 -18 -88 -38 -31 -20 -58 -36 -60 -36 -2 0 -3 42 -2 92 1 106 -4 112 -68 77z m-50 -252 c-3 -35 -15 -96 -26 -136 -38 -137 -95 -225 -250 -386 -95 -99 -146 -162 -138 -170 9 -9 145 64 204 108 69 52 142 137 186 215 17 28 34 52 38 52 14 0 109 -109 137 -157 20 -34 27 -63 31 -119 l5 -75 123 -102 123 -102 -31 -32 c-17 -17 -58 -46 -91 -64 -56 -30 -64 -31 -131 -25 -210 19 -242 19 -294 2 -85 -29 -136 -84 -163 -177 -7 -24 -14 -45 -15 -47 -1 -2 -24 12 -51 32 -71 51 -226 122 -318 146 -44 12 -121 24 -172 27 l-92 6 52 46 c301 267 491 460 553 564 63 105 310 455 323 456 2 1 1 -27 -3 -62z m170 -107 c-13 -41 -33 -94 -45 -118 l-22 -42 -25 23 c-23 21 -24 26 -12 53 11 26 119 164 125 160 1 -1 -8 -35 -21 -76z m-2559 -1861 c218 -55 388 -198 504 -424 78 -152 147 -263 208 -334 l55 -65 -48 34 c-87 63 -188 180 -271 314 -151 243 -323 375 -525 402 -48 6 -52 5 -47 -12 3 -10 13 -47 22 -81 57 -228 178 -445 341 -613 114 -118 234 -205 369 -270 202 -96 320 -123 550 -123 179 -1 286 15 435 64 265 86 531 285 679 509 78 118 81 121 41 40 -84 -170 -242 -356 -390 -461 -436 -309 -989 -330 -1456 -56 -293 172 -518 459 -633 807 -29 88 -70 257 -71 289 0 17 135 6 237 -20z"></path>
<path d="M2995 2922 c-18 -19 58 -72 103 -72 25 0 32 6 41 31 6 18 11 33 11 35 0 4 -151 10 -155 6z"></path>
<path d="M900 3399 c0 -6 15 -39 33 -73 46 -88 145 -182 241 -231 l79 -40 374 -3 c405 -3 419 -2 561 54 92 36 222 124 315 213 42 40 77 78 77 82 0 5 -372 9 -840 9 -609 0 -840 -3 -840 -11z"></path>
</g></svg></g></g><defs><clipPath id="SvgjsClipPath5647"><rect width="1000" height="1000" x="0" y="0" rx="300" ry="300"></rect></clipPath></defs></svg>